<?xml version="1.0" standalone="no"?>
<!DOCTYPE svg PUBLIC "-//W3C//DTD SVG 20010904//EN"
 "http://www.w3.org/TR/2001/REC-SVG-20010904/DTD/svg10.dtd">
<svg version="1.0" xmlns="http://www.w3.org/2000/svg"
 width="128.000000pt" height="128.000000pt" viewBox="0 0 128.000000 128.000000"
 preserveAspectRatio="xMidYMid meet">

<g transform="translate(0.000000,128.000000) scale(0.100000,-0.100000)"
fill="#000000" stroke="none">
<path d="M0 640 l0 -640 640 0 640 0 0 640 0 640 -640 0 -640 0 0 -640z m681
190 c17 -10 19 -22 19 -110 0 -61 4 -101 11 -106 17 -10 55 34 101 121 l43 80
85 3 c47 1 91 -2 98 -6 21 -14 6 -51 -63 -147 -36 -49 -65 -95 -65 -100 0 -6
23 -33 51 -60 58 -58 93 -110 86 -129 -7 -19 -143 -31 -182 -16 -17 6 -52 33
-80 60 -58 57 -72 55 -83 -11 l-7 -44 -70 -3 c-60 -3 -76 1 -131 28 -76 37
-127 92 -200 216 -64 109 -97 182 -90 201 4 10 25 13 87 11 l82 -3 41 -77 c56
-105 78 -133 99 -125 14 5 17 20 17 81 0 72 -13 106 -41 106 -18 0 -9 21 14
30 31 12 154 12 178 0z"/>
</g>
</svg>
